<?xml version="1.0" standalone="no"?>
<!DOCTYPE svg PUBLIC "-//W3C//DTD SVG 20010904//EN"
 "http://www.w3.org/TR/2001/REC-SVG-20010904/DTD/svg10.dtd">
<svg version="1.0" xmlns="http://www.w3.org/2000/svg"
 width="364.000000pt" height="146.000000pt" viewBox="0 0 364.000000 146.000000"
 preserveAspectRatio="xMidYMid meet">

<g transform="translate(0.000000,146.000000) scale(0.100000,-0.100000)"
fill="#000000" stroke="none">
<path d="M770 1359 c-302 -36 -540 -258 -580 -540 -40 -278 155 -565 445 -656
117 -37 264 -42 376 -14 194 48 362 174 307 229 -20 20 -49 14 -92 -22 -69
-56 -147 -94 -236 -115 -107 -26 -186 -26 -284 -1 -108 27 -190 74 -267 150
-99 98 -149 216 -149 354 0 236 154 431 396 501 193 56 383 16 542 -113 37
-31 47 -34 70 -26 39 14 42 56 5 89 -81 73 -249 148 -357 160 -28 3 -64 7 -81
9 -16 2 -59 0 -95 -5z"/>
<path d="M797 1009 c-101 -16 -179 -75 -220 -168 -28 -63 -20 -162 17 -226 34
-57 106 -110 170 -126 62 -15 171 -7 216 16 46 23 90 65 90 85 0 20 -31 50
-50 50 -8 0 -31 -12 -53 -27 -45 -31 -134 -42 -190 -24 -45 15 -93 68 -106
118 -31 112 87 229 210 208 21 -4 59 -21 85 -38 44 -29 48 -30 73 -16 56 31
30 82 -64 124 -59 27 -112 34 -178 24z"/>
<path d="M1497 1012 c-20 -4 -37 -40 -37 -77 0 -15 -7 -26 -20 -30 -11 -3 -23
-18 -26 -32 -6 -21 -2 -31 18 -47 25 -20 26 -27 30 -141 2 -69 10 -130 17
-143 18 -33 70 -62 112 -62 70 0 81 62 17 93 l-38 17 0 108 0 108 38 10 c30 7
38 14 40 37 4 37 -13 57 -49 57 -27 0 -29 3 -29 39 0 48 -29 73 -73 63z"/>
<path d="M3042 998 c-17 -17 -17 -489 0 -506 15 -15 61 -15 76 0 8 8 12 45 12
101 l0 89 108 -101 c80 -75 114 -101 134 -101 27 0 58 22 58 42 0 6 -36 48
-81 93 l-80 83 71 63 c88 78 97 92 75 125 -29 44 -56 32 -172 -76 l-108 -100
-3 137 c-1 80 -7 142 -14 150 -13 16 -60 17 -76 1z"/>
<path d="M1736 894 c-13 -13 -16 -45 -16 -195 0 -105 4 -188 10 -200 7 -13 21
-19 45 -19 47 0 55 20 55 140 0 71 5 110 15 130 17 33 61 60 97 60 32 0 68 27
68 50 0 52 -69 65 -137 26 l-42 -24 -16 24 c-18 28 -56 32 -79 8z"/>
<path d="M2139 882 c-71 -37 -111 -93 -117 -166 -11 -136 83 -236 223 -235 33
0 77 6 97 13 32 11 39 11 49 0 15 -18 63 -18 79 0 8 11 11 54 8 145 -3 125 -4
131 -33 172 -42 60 -119 99 -195 99 -44 0 -71 -7 -111 -28z m190 -98 c44 -37
58 -91 36 -138 -65 -137 -289 -52 -231 88 32 77 132 103 195 50z"/>
<path d="M2699 896 c-59 -21 -96 -53 -123 -108 -77 -155 29 -308 213 -308 85
0 171 48 171 95 0 47 -51 60 -100 24 -33 -25 -91 -29 -136 -11 -55 23 -84 107
-54 161 29 56 133 80 181 43 38 -30 60 -34 85 -17 28 18 31 55 6 78 -56 51
-167 70 -243 43z"/>
<path d="M2380 369 c0 -5 5 -7 10 -4 6 3 10 8 10 11 0 2 -4 4 -10 4 -5 0 -10
-5 -10 -11z"/>
<path d="M2380 256 c0 -44 4 -76 10 -76 6 0 10 30 10 69 0 39 -4 73 -10 76 -6
4 -10 -22 -10 -69z"/>
<path d="M2452 250 c2 -70 2 -71 5 -17 4 64 29 91 71 80 24 -6 30 -22 35 -93
3 -33 4 -27 5 22 2 78 -8 89 -77 85 l-41 -2 2 -75z"/>
<path d="M2633 323 c-7 -2 -13 -16 -13 -29 0 -20 9 -29 45 -44 50 -21 56 -34
24 -51 -16 -8 -28 -8 -46 0 -33 15 -42 13 -19 -4 24 -18 68 -19 84 -3 25 25
13 48 -34 68 -54 23 -54 45 -1 45 39 0 48 9 21 19 -18 7 -43 7 -61 -1z"/>
<path d="M2779 311 c-52 -42 -17 -131 51 -131 15 0 33 7 40 15 11 14 10 14
-14 5 -37 -14 -43 -13 -66 10 -32 32 -24 40 35 40 52 0 55 2 55 24 0 52 -57
73 -101 37z m83 -15 c14 -20 2 -31 -37 -34 -50 -4 -63 10 -35 38 22 22 57 20
72 -4z"/>
<path d="M2940 312 c-49 -39 -17 -132 45 -132 30 0 55 10 55 21 0 5 -12 4 -26
-1 -35 -14 -41 -13 -64 10 -31 31 -24 39 38 42 54 3 57 4 54 28 -5 48 -61 66
-102 32z m75 -8 c24 -24 13 -39 -30 -42 -49 -4 -63 10 -36 37 25 25 44 27 66
5z"/>
<path d="M3104 305 c-31 -31 -31 -69 2 -101 20 -20 33 -25 60 -22 19 2 34 1
34 -4 0 -14 -37 -27 -60 -21 -17 4 -21 2 -18 -8 7 -22 61 -23 89 -1 21 18 24
28 24 98 l0 77 -53 4 c-45 2 -57 -1 -78 -22z m88 -22 c22 -20 23 -31 1 -55
-31 -34 -83 -17 -83 27 0 43 47 60 82 28z"/>
<path d="M3296 309 c-36 -28 -36 -80 0 -108 44 -35 104 -20 124 29 14 33 3 60
-32 84 -31 22 -60 20 -92 -5z m88 -31 c13 -19 14 -25 2 -43 -26 -40 -86 -27
-86 19 0 47 57 63 84 24z"/>
</g>
</svg>
