<?xml version="1.0" standalone="no"?>
<!DOCTYPE svg PUBLIC "-//W3C//DTD SVG 20010904//EN"
 "http://www.w3.org/TR/2001/REC-SVG-20010904/DTD/svg10.dtd">
<svg version="1.0" xmlns="http://www.w3.org/2000/svg"
 width="305.000000pt" height="292.000000pt" viewBox="0 0 305.000000 292.000000"
 preserveAspectRatio="xMidYMid meet">

<g transform="translate(0.000000,292.000000) scale(0.100000,-0.100000)"
fill="#000000" stroke="none">
<path d="M0 1460 c0 -1384 1 -1460 18 -1460 12 0 13 3 4 8 -10 7 -12 304 -10
1453 l3 1444 1510 0 1510 0 5 -1425 5 -1425 3 1433 2 1432 -1525 0 -1525 0 0
-1460z"/>
<path d="M350 2310 l0 -270 285 0 285 0 0 270 0 270 -285 0 -285 0 0 -270z
m490 -5 l0 -195 -202 2 -203 3 -3 193 -2 192 205 0 205 0 0 -195z"/>
<path d="M520 2305 l0 -116 118 3 117 3 3 113 3 112 -121 0 -120 0 0 -115z"/>
<path d="M1080 2505 l0 -75 40 0 40 0 0 -40 0 -40 40 0 40 0 0 75 0 75 40 0
40 0 0 40 0 40 -40 0 -40 0 0 -40 0 -40 -40 0 -40 0 0 40 0 40 -40 0 -40 0 0
-75z"/>
<path d="M1570 2505 l0 -75 35 0 c33 0 35 2 35 35 0 35 0 35 45 35 l45 0 0 40
0 40 -80 0 -80 0 0 -75z"/>
<path d="M1890 2540 l0 -40 -40 0 c-39 0 -40 -1 -40 -35 0 -34 1 -35 40 -35
39 0 40 1 40 35 0 34 1 35 40 35 l40 0 0 -40 0 -40 -40 0 c-39 0 -40 -1 -40
-35 l0 -35 80 0 80 0 0 115 0 115 -80 0 -80 0 0 -40z"/>
<path d="M2130 2310 l0 -270 285 0 285 0 0 270 0 270 -285 0 -285 0 0 -270z
m488 -2 l-3 -193 -202 -3 -203 -2 0 195 0 195 205 0 205 0 -2 -192z"/>
<path d="M2292 2308 l3 -113 118 -3 117 -3 0 116 0 115 -120 0 -121 0 3 -112z"/>
<path d="M1410 2345 l0 -155 40 0 40 0 0 -75 0 -75 -45 0 -45 0 0 75 0 75 -40
0 -40 0 0 40 0 40 -41 0 -40 0 3 -37 c3 -36 5 -38 41 -41 l37 -3 0 -114 0
-114 43 -3 c41 -3 42 -4 45 -40 3 -37 4 -38 43 -38 38 0 39 -1 39 -35 0 -33 2
-35 35 -35 l35 0 0 75 0 75 40 0 40 0 0 40 0 40 -40 0 -40 0 0 115 0 115 40 0
40 0 0 40 0 40 -80 0 -80 0 0 75 0 75 -35 0 -35 0 0 -155z"/>
<path d="M1650 2385 c0 -34 1 -35 40 -35 l40 0 0 -40 0 -40 -40 0 -40 0 0
-115 0 -115 40 0 40 0 0 -40 0 -40 -40 0 -40 0 0 -40 0 -40 40 0 c39 0 40 -1
40 -35 0 -34 1 -35 40 -35 l40 0 0 115 0 115 40 0 40 0 0 -40 0 -40 40 0 41 0
-3 -117 -3 -118 -37 -3 c-36 -3 -38 -5 -38 -38 0 -33 1 -34 40 -34 l40 0 0
-40 0 -40 -80 0 -80 0 0 -40 0 -40 -40 0 c-39 0 -40 -1 -40 -35 0 -34 1 -35
40 -35 l40 0 0 -40 0 -40 -125 0 -125 0 0 34 c0 33 -2 35 -37 38 -36 3 -38 5
-41 41 -3 35 -5 37 -38 37 l-34 0 0 -115 0 -115 -45 0 -45 0 0 75 0 75 -40 0
-40 0 0 -75 0 -75 -40 0 -40 0 0 75 0 75 -80 0 -80 0 0 -35 c0 -34 1 -35 40
-35 l40 0 0 -40 0 -40 40 0 c39 0 40 -1 40 -35 0 -34 1 -35 40 -35 l40 0 0
-46 0 -45 -37 3 c-36 3 -38 5 -41 41 l-3 37 -80 0 -79 0 0 -35 c0 -34 1 -35
40 -35 l40 0 0 -40 0 -40 -40 0 c-39 0 -40 1 -40 35 0 34 -1 35 -40 35 -39 0
-40 -1 -40 -35 0 -34 -1 -35 -40 -35 l-40 0 0 40 0 40 40 0 c39 0 40 1 40 35
l0 35 -80 0 -80 0 0 40 0 40 -40 0 -40 0 0 -41 0 -40 -42 3 c-42 3 -43 4 -46
41 -3 35 -5 37 -37 37 l-34 0 -3 -77 -3 -78 -82 -3 -83 -3 0 -34 0 -35 85 0
85 0 0 -40 c0 -39 1 -40 35 -40 l34 0 3 78 3 77 83 3 82 3 0 -41 0 -40 -40 0
-40 0 0 -40 0 -40 160 0 160 0 0 -40 0 -40 80 0 80 0 0 -40 0 -40 -40 0 -40 0
0 -115 0 -115 -40 0 -40 0 0 -75 0 -75 40 0 40 0 0 -40 0 -40 160 0 159 0 3
78 3 77 40 0 c39 0 40 -1 43 -37 3 -36 5 -38 37 -38 32 0 34 2 37 38 3 35 5
37 41 40 35 3 37 5 37 37 0 32 -2 34 -37 37 l-38 3 -3 78 -3 77 -40 0 -40 0 3
38 c3 36 4 37 43 37 39 0 40 -1 43 -37 3 -36 5 -38 38 -38 l34 0 0 75 0 74 83
3 82 3 3 38 3 37 -40 0 -41 0 0 155 0 155 40 0 c39 0 40 -1 40 -35 0 -34 1
-35 40 -35 l40 0 0 75 0 75 40 0 40 0 0 -40 0 -40 40 0 c39 0 40 -1 40 -35 l0
-35 80 0 80 0 0 35 c0 34 1 35 40 35 l40 0 0 40 0 40 80 0 80 0 0 40 0 40 40
0 c39 0 40 1 40 35 0 34 -1 35 -40 35 l-40 0 0 115 0 114 -77 3 -78 3 -3 118
-3 117 -79 0 -80 0 0 -75 0 -75 40 0 40 0 0 -45 0 -46 -77 3 -78 3 -3 193 -2
192 -40 0 c-39 0 -40 -1 -40 -35 0 -34 -1 -35 -40 -35 l-40 0 0 115 0 115 -40
0 -40 0 0 75 0 75 -80 0 -80 0 0 -35z m160 -155 l0 -40 -40 0 -40 0 0 40 0 40
40 0 40 0 0 -40z m-2 -152 l3 -38 -40 0 -41 0 0 41 0 40 38 -3 c35 -3 37 -5
40 -40z m562 -548 l0 -120 -40 0 c-39 0 -40 -1 -40 -35 0 -34 -1 -35 -40 -35
-39 0 -40 1 -40 35 l0 35 -80 0 -80 0 0 40 0 40 -40 0 -40 0 0 40 0 40 80 0
80 0 0 -35 c0 -34 1 -35 40 -35 39 0 40 1 40 35 0 34 1 35 40 35 l40 0 0 40 0
40 40 0 40 0 0 -120z m-240 -230 l0 -40 -40 0 -40 0 0 40 0 40 40 0 40 0 0
-40z m-482 -117 l-3 -78 -40 0 c-39 0 -40 1 -43 38 -3 36 -4 37 -43 37 -39 0
-39 0 -39 40 l0 40 85 0 86 0 -3 -77z m-160 -115 l3 -38 80 0 79 0 0 -40 0
-40 -79 0 -80 0 -3 -37 -3 -38 -162 -3 -163 -2 0 40 0 40 -40 0 -40 0 0 40 0
40 40 0 40 0 0 -40 0 -40 40 0 40 0 0 40 0 40 40 0 40 0 0 -40 0 -40 80 0 80
0 0 40 0 40 -40 0 -40 0 0 41 0 40 43 -3 c41 -3 42 -4 45 -40z m-83 -388 l0
-115 -42 -3 -43 -3 0 -75 0 -74 -80 0 -80 0 0 35 c0 34 -1 35 -40 35 l-40 0 0
40 0 40 40 0 40 0 0 40 0 40 80 0 80 0 0 40 0 40 -40 0 -40 0 0 40 0 41 83 -3
82 -3 0 -115z"/>
<path d="M2210 1455 c0 -34 1 -35 40 -35 39 0 40 1 40 35 0 34 -1 35 -40 35
-39 0 -40 -1 -40 -35z"/>
<path d="M1007 2344 c-4 -4 -7 -22 -7 -41 0 -32 1 -33 41 -33 l40 0 -3 38 c-3
33 -6 37 -33 40 -17 2 -34 0 -38 -4z"/>
<path d="M1000 2075 l0 -115 40 0 40 0 0 -40 c0 -40 0 -40 -40 -40 l-39 0 -3
-77 -3 -78 -37 -3 c-36 -3 -38 -5 -38 -38 l0 -34 -245 0 -245 0 0 35 c0 34 -1
35 -40 35 l-40 0 0 -110 0 -110 80 0 80 0 0 35 c0 35 0 35 45 35 45 0 45 0 45
-35 l0 -35 120 0 120 0 0 35 c0 34 1 35 40 35 39 0 40 -1 40 -35 0 -34 1 -35
40 -35 39 0 40 1 40 35 0 34 1 35 40 35 39 0 40 -1 40 -35 l0 -35 80 0 80 0 0
230 0 230 -40 0 -40 0 0 40 0 40 40 0 c39 0 40 1 40 35 0 34 -1 35 -40 35 -39
0 -40 -1 -40 -35 0 -34 -1 -35 -40 -35 l-40 0 0 40 0 40 40 0 c39 0 40 1 40
35 l0 35 -80 0 -80 0 0 -115z m160 -385 l0 -40 -40 0 -40 0 0 40 0 40 40 0 40
0 0 -40z m-160 -80 l0 -40 -40 0 -40 0 0 40 0 40 40 0 40 0 0 -40z"/>
<path d="M440 1885 l0 -75 75 0 75 0 0 75 0 75 -75 0 -75 0 0 -75z"/>
<path d="M840 1920 l0 -40 -80 0 -80 0 0 -35 0 -35 80 0 80 0 0 35 c0 34 1 35
40 35 l40 0 0 40 0 40 -40 0 -40 0 0 -40z"/>
<path d="M2377 1953 c-4 -3 -7 -37 -7 -75 l0 -68 40 0 40 0 0 75 0 75 -33 0
c-19 0 -37 -3 -40 -7z"/>
<path d="M1320 1845 c0 -34 1 -35 40 -35 39 0 40 1 40 35 0 34 -1 35 -40 35
-39 0 -40 -1 -40 -35z"/>
<path d="M2540 1846 c0 -33 2 -35 38 -38 35 -3 37 -5 40 -40 3 -37 4 -38 43
-38 l39 0 0 75 0 75 -80 0 -80 0 0 -34z"/>
<path d="M600 1765 c0 -34 1 -35 40 -35 39 0 40 1 40 35 0 34 -1 35 -40 35
-39 0 -40 -1 -40 -35z"/>
<path d="M840 1765 c0 -34 1 -35 40 -35 39 0 40 1 40 35 0 34 -1 35 -40 35
-39 0 -40 -1 -40 -35z"/>
<path d="M1650 1765 c0 -34 1 -35 40 -35 39 0 40 1 40 35 0 34 -1 35 -40 35
-39 0 -40 -1 -40 -35z"/>
<path d="M2460 1765 c0 -33 2 -35 35 -35 33 0 35 2 35 35 0 33 -2 35 -35 35
-33 0 -35 -2 -35 -35z"/>
<path d="M1570 1685 c0 -33 2 -35 35 -35 33 0 35 2 35 35 0 33 -2 35 -35 35
-33 0 -35 -2 -35 -35z"/>
<path d="M1650 1575 l0 -75 40 0 40 0 0 75 0 75 -40 0 -40 0 0 -75z"/>
<path d="M2540 1610 c0 -39 1 -40 35 -40 34 0 35 1 35 40 0 39 -1 40 -35 40
-34 0 -35 -1 -35 -40z"/>
<path d="M1490 1535 c0 -33 2 -35 35 -35 33 0 35 2 35 35 0 33 -2 35 -35 35
-33 0 -35 -2 -35 -35z"/>
<path d="M2620 1495 l0 -75 40 0 40 0 0 75 0 75 -40 0 -40 0 0 -75z"/>
<path d="M840 1455 c0 -34 1 -35 40 -35 39 0 40 1 40 35 0 34 -1 35 -40 35
-39 0 -40 -1 -40 -35z"/>
<path d="M600 1375 l0 -35 120 0 120 0 0 -40 0 -40 40 0 c39 0 40 -1 40 -35 0
-34 1 -35 40 -35 39 0 40 1 40 35 0 34 -1 35 -40 35 l-40 0 0 40 0 40 -40 0
c-39 0 -40 1 -40 35 l0 35 -120 0 -120 0 0 -35z"/>
<path d="M357 1333 c-4 -3 -7 -37 -7 -75 l0 -68 40 0 c39 0 40 1 40 35 0 34 1
35 40 35 l40 0 0 40 0 40 -73 0 c-41 0 -77 -3 -80 -7z"/>
<path d="M2540 1300 l0 -40 40 0 40 0 0 -75 0 -75 40 0 41 0 -3 113 -3 112
-77 3 -78 3 0 -41z"/>
<path d="M2370 1220 l0 -40 -40 0 c-39 0 -40 -1 -40 -35 0 -34 1 -35 40 -35
l40 0 0 -40 0 -40 -80 0 -80 0 0 35 0 34 -117 3 -118 3 -3 38 c-3 36 -4 37
-42 37 -38 0 -39 -1 -42 -37 -3 -36 -5 -38 -40 -41 -36 -3 -38 -5 -38 -38 0
-33 1 -34 40 -34 l40 0 0 -40 0 -40 40 0 40 0 0 -80 0 -80 -40 0 -40 0 0 -115
0 -115 -40 0 -40 0 0 115 0 115 -40 0 -40 0 0 -150 0 -150 40 0 40 0 0 -40 0
-40 40 0 40 0 0 75 0 75 40 0 40 0 0 -115 0 -115 80 0 80 0 0 40 0 40 -40 0
-40 0 0 40 0 40 40 0 40 0 0 75 0 75 40 0 40 0 0 -75 0 -75 80 0 80 0 0 115 0
115 40 0 40 0 0 40 0 40 40 0 c39 0 40 1 40 35 0 34 -1 35 -40 35 l-40 0 0
120 0 120 40 0 c39 0 40 1 40 35 0 34 -1 35 -40 35 l-40 0 0 40 0 40 -40 0
-40 0 0 -40z m-80 -385 l0 -115 -120 0 -120 0 0 115 0 115 120 0 120 0 0 -115z
m-240 -235 l0 -40 -40 0 -40 0 0 40 0 40 40 0 40 0 0 -40z"/>
<path d="M2130 835 c0 -34 1 -35 40 -35 39 0 40 1 40 35 0 34 -1 35 -40 35
-39 0 -40 -1 -40 -35z"/>
<path d="M2540 985 l0 -115 40 0 c39 0 40 -1 40 -35 0 -34 1 -35 40 -35 l40 0
0 75 0 75 -45 0 -45 0 0 75 0 75 -35 0 -35 0 0 -115z"/>
<path d="M350 600 l0 -270 285 0 285 0 0 270 0 270 -285 0 -285 0 0 -270z
m490 5 l0 -195 -205 0 -205 0 0 188 c0 104 3 192 7 195 3 4 96 7 205 7 l198 0
0 -195z"/>
<path d="M520 605 l0 -115 120 0 121 0 -3 113 -3 112 -117 3 -118 3 0 -116z"/>
<path d="M2540 715 l0 -75 -40 0 -40 0 0 -75 0 -75 120 0 120 0 0 34 c0 34 -1
35 -42 38 l-43 3 -3 113 -3 112 -34 0 -35 0 0 -75z"/>
<path d="M2370 445 l0 -35 -80 0 -80 0 0 -40 0 -40 120 0 120 0 0 75 0 75 -40
0 c-39 0 -40 -1 -40 -35z"/>
<path d="M1570 370 l0 -40 80 0 80 0 0 40 0 40 -80 0 -80 0 0 -40z"/>
<path d="M2620 371 l0 -41 41 0 40 0 -3 38 c-3 35 -5 37 -40 40 l-38 3 0 -40z"/>
<path d="M3042 20 c0 -14 2 -19 5 -12 2 6 2 18 0 25 -3 6 -5 1 -5 -13z"/>
</g>
</svg>
